<svg width="100" height="100" viewBox="0 0 100 100" fill="none" xmlns="http://www.w3.org/2000/svg">
<rect width="100" height="100" rx="50" fill="#E51C1C"/>
<path d="M59.6433 39.56C59.204 39.56 58.8465 39.9175 58.8465 40.3567C58.8465 40.796 59.204 41.1535 59.6433 41.1535C60.0826 41.1535 60.44 40.7961 60.44 40.3567C60.44 39.9174 60.0826 39.56 59.6433 39.56ZM50.1034 42.8332C46.2087 42.8332 43.04 46.0018 43.04 49.8966C43.04 53.7913 46.2087 56.96 50.1034 56.96C53.9983 56.96 57.1669 53.7914 57.1669 49.8966C57.1669 46.0019 53.9983 42.8332 50.1034 42.8332Z" fill="white"/>
<path d="M59.8251 28.25H40.1749C33.5995 28.25 28.25 33.5995 28.25 40.1749V59.8251C28.25 66.4006 33.5995 71.75 40.1749 71.75H59.8251C66.4006 71.75 71.75 66.4005 71.75 59.8251V40.1749C71.75 33.5995 66.4006 28.25 59.8251 28.25ZM50 61.9312C43.4211 61.9312 38.0689 56.579 38.0689 50C38.0689 43.4211 43.4211 38.0689 50 38.0689C56.5789 38.0689 61.9312 43.4211 61.9312 50C61.9312 56.5789 56.5789 61.9312 50 61.9312ZM62.6448 40.9802C60.646 40.9802 59.0199 39.3541 59.0199 37.3553C59.0199 35.3565 60.646 33.7302 62.6448 33.7302C64.6436 33.7302 66.2698 35.3564 66.2698 37.3552C66.2698 39.354 64.6436 40.9802 62.6448 40.9802Z" fill="white"/>
</svg>
