<svg width="100" height="100" viewBox="0 0 100 100" fill="none" xmlns="http://www.w3.org/2000/svg">
<rect width="100" height="100" rx="50" fill="#E51C1C"/>
<path fill-rule="evenodd" clip-rule="evenodd" d="M77.1926 35.3023C77.5868 33.9763 77.1926 33 75.3045 33H69.0703C67.4838 33 66.7523 33.8427 66.3557 34.7729C66.3557 34.7729 63.1851 42.5346 58.6941 47.5763C57.2406 49.0383 56.5804 49.5021 55.7872 49.5021C55.3905 49.5021 54.7944 49.0383 54.7944 47.7099V35.3023C54.7944 33.7091 54.3574 33 53.037 33H43.2332C42.2428 33 41.6467 33.7383 41.6467 34.4401C41.6467 35.9483 43.8934 36.298 44.1238 40.5431V49.7669C44.1238 51.7899 43.7604 52.1566 42.9672 52.1566C40.8535 52.1566 35.7117 44.3584 32.6599 35.4359C32.0685 33.6994 31.47 33 29.8764 33H23.6375C21.8562 33 21.5 33.8427 21.5 34.7729C21.5 36.4291 23.6137 44.6571 31.3442 55.5396C36.4978 62.971 43.7533 67 50.3628 67C54.3266 67 54.8158 66.1063 54.8158 64.5641V58.9469C54.8158 57.157 55.191 56.8 56.4474 56.8C57.3736 56.8 58.9577 57.2663 62.6579 60.8484C66.8853 65.096 67.5812 67 69.9609 67H76.1951C77.9763 67 78.8693 66.1063 78.3563 64.3383C77.7911 62.58 75.7724 60.0276 73.0958 56.9991C71.6423 55.2749 69.4621 53.417 68.7995 52.4869C67.8757 51.2944 68.1393 50.7626 68.7995 49.7013C68.7995 49.7013 76.3993 38.9524 77.1902 35.3023H77.1926Z" fill="white"/>
</svg>
