<svg width="100" height="100" viewBox="0 0 100 100" fill="none" xmlns="http://www.w3.org/2000/svg">
<rect width="100" height="100" rx="50" fill="#E51C1C"/>
<path d="M50.0059 26.5H49.9941C37.0368 26.5 26.5 37.0397 26.5 50C26.5 55.1406 28.1568 59.9053 30.9738 63.7739L28.0451 72.5042L37.0779 69.6166C40.7939 72.0783 45.2266 73.5 50.0059 73.5C62.9632 73.5 73.5 62.9573 73.5 50C73.5 37.0427 62.9632 26.5 50.0059 26.5ZM63.6799 59.6849C63.113 61.2859 60.8629 62.6136 59.0681 63.0014C57.8402 63.2628 56.2363 63.4714 50.8372 61.233C43.9311 58.3719 39.4838 51.3542 39.1371 50.8989C38.8052 50.4436 36.3465 47.1829 36.3465 43.8107C36.3465 40.4384 38.0591 38.7964 38.7494 38.0914C39.3163 37.5127 40.2534 37.2483 41.1522 37.2483C41.4431 37.2483 41.7045 37.263 41.9395 37.2747C42.6298 37.3041 42.9764 37.3453 43.4317 38.4351C43.9987 39.801 45.3793 43.1733 45.5438 43.5199C45.7113 43.8665 45.8787 44.3365 45.6437 44.7918C45.4234 45.2618 45.2295 45.4704 44.8829 45.8699C44.5362 46.2694 44.2072 46.5749 43.8606 47.0037C43.5434 47.3768 43.185 47.7763 43.5845 48.4666C43.984 49.1423 45.3646 51.3953 47.3974 53.2048C50.0206 55.5401 52.1473 56.2863 52.9081 56.6035C53.4751 56.8385 54.1507 56.7827 54.5649 56.3421C55.0907 55.7751 55.7399 54.8351 56.4008 53.9098C56.8708 53.2459 57.4642 53.1637 58.0869 53.3987C58.7214 53.619 62.079 55.2787 62.7693 55.6224C63.4596 55.969 63.9149 56.1335 64.0824 56.4243C64.2469 56.7151 64.2469 58.0811 63.6799 59.6849Z" fill="white"/>
</svg>
